<svg width="145" height="41" viewBox="0 0 145 41" fill="none" xmlns="http://www.w3.org/2000/svg">
<rect x="12" y="16" width="132" height="21" rx="3" fill="#3EE1CE"/>
<path d="M13.0915 30.36C11.0115 30.36 9.19148 29.9 7.63148 28.98C6.07148 28.06 4.85148 26.79 3.97148 25.17C3.09148 23.53 2.65148 21.64 2.65148 19.5C2.65148 17.36 3.09148 15.48 3.97148 13.86C4.85148 12.22 6.07148 10.94 7.63148 10.02C9.19148 9.1 11.0115 8.64 13.0915 8.64C15.1715 8.64 16.9915 9.1 18.5515 10.02C20.1115 10.94 21.3215 12.22 22.1815 13.86C23.0615 15.48 23.5015 17.36 23.5015 19.5C23.5015 21.56 23.0915 23.39 22.2715 24.99C21.4715 26.59 20.3515 27.85 18.9115 28.77L23.9815 33.93H19.9615L16.2115 29.97C15.2315 30.23 14.1915 30.36 13.0915 30.36ZM13.0915 27.51C14.5315 27.51 15.7815 27.19 16.8415 26.55C17.9215 25.91 18.7615 24.99 19.3615 23.79C19.9615 22.59 20.2615 21.16 20.2615 19.5C20.2615 17.84 19.9615 16.41 19.3615 15.21C18.7615 14.01 17.9215 13.09 16.8415 12.45C15.7815 11.81 14.5315 11.49 13.0915 11.49C11.6515 11.49 10.3915 11.81 9.31148 12.45C8.23148 13.09 7.39148 14.01 6.79148 15.21C6.21148 16.41 5.92148 17.84 5.92148 19.5C5.92148 21.16 6.21148 22.59 6.79148 23.79C7.39148 24.99 8.23148 25.91 9.31148 26.55C10.3915 27.19 11.6515 27.51 13.0915 27.51ZM32.6484 30.36C30.8484 30.36 29.4284 29.8 28.3884 28.68C27.3684 27.56 26.8584 25.89 26.8584 23.67V15.12H30.0384V23.34C30.0384 26.22 31.2184 27.66 33.5784 27.66C34.7584 27.66 35.7284 27.24 36.4884 26.4C37.2484 25.56 37.6284 24.36 37.6284 22.8V15.12H40.8084V30H37.9884L37.7484 27.39C37.2884 28.31 36.6084 29.04 35.7084 29.58C34.8284 30.1 33.8084 30.36 32.6484 30.36ZM51.8138 30.36C50.3938 30.36 49.1138 30.04 47.9738 29.4C46.8538 28.74 45.9638 27.83 45.3038 26.67C44.6438 25.49 44.3138 24.12 44.3138 22.56C44.3138 21 44.6438 19.64 45.3038 18.48C45.9838 17.3 46.8938 16.39 48.0338 15.75C49.1738 15.09 50.4438 14.76 51.8438 14.76C53.2638 14.76 54.5338 15.09 55.6538 15.75C56.7938 16.39 57.6938 17.3 58.3538 18.48C59.0338 19.64 59.3737 21 59.3737 22.56C59.3737 24.12 59.0338 25.49 58.3538 26.67C57.6938 27.83 56.7938 28.74 55.6538 29.4C54.5138 30.04 53.2338 30.36 51.8138 30.36ZM51.8138 27.63C52.5738 27.63 53.2738 27.44 53.9138 27.06C54.5738 26.68 55.1038 26.12 55.5038 25.38C55.9038 24.62 56.1038 23.68 56.1038 22.56C56.1038 21.44 55.9038 20.51 55.5038 19.77C55.1238 19.01 54.6038 18.44 53.9438 18.06C53.3038 17.68 52.6038 17.49 51.8438 17.49C51.0838 17.49 50.3738 17.68 49.7138 18.06C49.0738 18.44 48.5538 19.01 48.1538 19.77C47.7538 20.51 47.5538 21.44 47.5538 22.56C47.5538 23.68 47.7538 24.62 48.1538 25.38C48.5538 26.12 49.0738 26.68 49.7138 27.06C50.3538 27.44 51.0538 27.63 51.8138 27.63ZM68.4668 30C67.0068 30 65.8468 29.65 64.9868 28.95C64.1268 28.23 63.6968 26.96 63.6968 25.14V17.79H61.1468V15.12H63.6968L64.0868 11.34H66.8768V15.12H71.0768V17.79H66.8768V25.14C66.8768 25.96 67.0468 26.53 67.3868 26.85C67.7468 27.15 68.3568 27.3 69.2168 27.3H70.9268V30H68.4668ZM76.0957 36.6L79.6657 28.77H78.7957L72.9157 15.12H76.3657L80.9257 26.13L85.6957 15.12H89.0557L79.4557 36.6H76.0957ZM96.8191 30.36C94.9391 30.36 93.3891 29.9 92.1691 28.98C90.9491 28.06 90.2491 26.84 90.0691 25.32H93.2791C93.4391 26 93.8191 26.59 94.4191 27.09C95.0191 27.57 95.8091 27.81 96.7891 27.81C97.7491 27.81 98.4491 27.61 98.8891 27.21C99.3291 26.81 99.5491 26.35 99.5491 25.83C99.5491 25.07 99.2391 24.56 98.6191 24.3C98.0191 24.02 97.1791 23.77 96.0991 23.55C95.2591 23.37 94.4191 23.13 93.5791 22.83C92.7591 22.53 92.0691 22.11 91.5091 21.57C90.9691 21.01 90.6991 20.26 90.6991 19.32C90.6991 18.02 91.1991 16.94 92.1991 16.08C93.1991 15.2 94.5991 14.76 96.3991 14.76C98.0591 14.76 99.3991 15.16 100.419 15.96C101.459 16.76 102.069 17.89 102.249 19.35H99.1891C99.0891 18.71 98.7891 18.21 98.2891 17.85C97.8091 17.49 97.1591 17.31 96.3391 17.31C95.5391 17.31 94.9191 17.48 94.4791 17.82C94.0391 18.14 93.8191 18.56 93.8191 19.08C93.8191 19.6 94.1191 20.01 94.7191 20.31C95.3391 20.61 96.1491 20.88 97.1491 21.12C98.1491 21.34 99.0691 21.6 99.9091 21.9C100.769 22.18 101.459 22.6 101.979 23.16C102.499 23.72 102.759 24.54 102.759 25.62C102.779 26.98 102.249 28.11 101.169 29.01C100.109 29.91 98.6591 30.36 96.8191 30.36ZM113.281 30.36C111.821 30.36 110.511 30.03 109.351 29.37C108.211 28.71 107.311 27.8 106.651 26.64C106.011 25.46 105.691 24.1 105.691 22.56C105.691 21.02 106.011 19.67 106.651 18.51C107.311 17.33 108.211 16.41 109.351 15.75C110.511 15.09 111.821 14.76 113.281 14.76C115.121 14.76 116.661 15.24 117.901 16.2C119.161 17.16 119.971 18.46 120.331 20.1H117.001C116.801 19.28 116.361 18.64 115.681 18.18C115.001 17.72 114.201 17.49 113.281 17.49C112.501 17.49 111.781 17.69 111.121 18.09C110.461 18.47 109.931 19.04 109.531 19.8C109.131 20.54 108.931 21.46 108.931 22.56C108.931 23.66 109.131 24.59 109.531 25.35C109.931 26.09 110.461 26.66 111.121 27.06C111.781 27.46 112.501 27.66 113.281 27.66C114.201 27.66 115.001 27.43 115.681 26.97C116.361 26.51 116.801 25.86 117.001 25.02H120.331C119.991 26.62 119.191 27.91 117.931 28.89C116.671 29.87 115.121 30.36 113.281 30.36ZM130.74 30.36C129.32 30.36 128.04 30.04 126.9 29.4C125.78 28.74 124.89 27.83 124.23 26.67C123.57 25.49 123.24 24.12 123.24 22.56C123.24 21 123.57 19.64 124.23 18.48C124.91 17.3 125.82 16.39 126.96 15.75C128.1 15.09 129.37 14.76 130.77 14.76C132.19 14.76 133.46 15.09 134.58 15.75C135.72 16.39 136.62 17.3 137.28 18.48C137.96 19.64 138.3 21 138.3 22.56C138.3 24.12 137.96 25.49 137.28 26.67C136.62 27.83 135.72 28.74 134.58 29.4C133.44 30.04 132.16 30.36 130.74 30.36ZM130.74 27.63C131.5 27.63 132.2 27.44 132.84 27.06C133.5 26.68 134.03 26.12 134.43 25.38C134.83 24.62 135.03 23.68 135.03 22.56C135.03 21.44 134.83 20.51 134.43 19.77C134.05 19.01 133.53 18.44 132.87 18.06C132.23 17.68 131.53 17.49 130.77 17.49C130.01 17.49 129.3 17.68 128.64 18.06C128 18.44 127.48 19.01 127.08 19.77C126.68 20.51 126.48 21.44 126.48 22.56C126.48 23.68 126.68 24.62 127.08 25.38C127.48 26.12 128 26.68 128.64 27.06C129.28 27.44 129.98 27.63 130.74 27.63Z" fill="#131313"/>
</svg>
