<?xml version="1.0" standalone="no"?>
<!DOCTYPE svg PUBLIC "-//W3C//DTD SVG 20010904//EN"
 "http://www.w3.org/TR/2001/REC-SVG-20010904/DTD/svg10.dtd">
<svg version="1.0" xmlns="http://www.w3.org/2000/svg"
 width="132.000000pt" height="132.000000pt" viewBox="0 0 132.000000 132.000000"
 preserveAspectRatio="xMidYMid meet">
<metadata>
Created by potrace 1.14, written by Peter Selinger 2001-2017
</metadata>
<g transform="translate(0.000000,132.000000) scale(0.100000,-0.100000)"
fill="#000000" stroke="none">
<path d="M552 914 c-57 -28 -85 -61 -107 -125 -32 -90 -14 -189 47 -254 48
-53 117 -80 189 -73 46 5 50 3 90 -39 38 -38 48 -43 88 -43 l45 0 -57 58 -57
58 26 25 c47 44 68 97 69 175 0 86 -18 128 -51 120 -16 -4 -23 -1 -27 14 -3
12 -14 20 -26 20 -14 0 -21 6 -21 20 0 13 -7 20 -20 20 -15 0 -20 7 -20 25 0
24 -3 25 -58 25 -42 0 -72 -7 -110 -26z m192 -62 c44 -26 71 -86 70 -157 -1
-106 -56 -165 -153 -165 -29 0 -65 7 -81 15 -82 43 -104 203 -37 280 46 53
135 65 201 27z"/>
<path d="M740 926 c0 -5 34 -39 75 -73 24 -21 37 -15 20 10 -14 22 -95 75 -95
63z"/>
</g>
</svg>
